<?xml version="1.0" encoding="UTF-8"?>
<svg width="71px" height="64px" viewBox="0 0 71 64" version="1.1" xmlns="http://www.w3.org/2000/svg" xmlns:xlink="http://www.w3.org/1999/xlink">
    <!-- Generator: Sketch 52 (66869) - http://www.bohemiancoding.com/sketch -->
    <title>api</title>
    <desc>Created with Sketch.</desc>
    <g id="Products" stroke="none" stroke-width="1" fill="none" fill-rule="evenodd">
        <g transform="translate(-493.000000, -192.000000)" fill-rule="nonzero" id="api">
            <g transform="translate(493.000000, 189.000000)">
                <g id="Group">
                    <rect id="Rectangle_29-2" x="0" y="0" width="72" height="72" rx="25"></rect>
                </g>
                <g id="Group_89" transform="translate(0.000000, 3.600000)">
                    <g id="Group_87" transform="translate(0.316848, 0.001888)" fill="#F4F4F4">
                        <path d="M60.2481477,55.8707525 C59.9425927,55.7681103 59.7475534,55.4676043 59.7772585,55.1452318 C59.8085676,53.4418629 59.7772585,51.7699563 59.8085676,50.0659581 C59.8254732,49.8352691 59.9129612,49.6154789 60.0590406,49.4367121 C60.5224879,48.9878853 60.7868987,48.3706612 60.7927872,47.7238995 C60.7986757,47.0771377 60.5455474,46.4551555 60.0903497,45.9978827 C59.6397396,45.5525346 59.0296868,45.3082323 58.3977698,45.3200706 C57.7658528,45.3319089 57.1652853,45.598891 56.7315069,46.0608073 C56.6062704,46.1866565 56.4810339,46.3445973 56.3232359,46.3445973 C55.1303583,46.3760596 53.9061715,46.3445973 52.6813586,46.3445973 L52.6813586,37.9844349 L55.8523467,37.9844349 C56.2052992,37.9662993 56.5484805,38.1042434 56.7916204,38.3619825 C57.3907348,38.9882905 58.2966547,39.2091306 59.1147574,38.9283039 C60.0484997,38.6321303 60.7073548,37.7927068 60.776439,36.8112151 C60.8455233,35.8297234 60.3108086,34.9054639 59.4278486,34.4801639 C58.5158274,34.0712434 57.4481863,34.2583478 56.7277498,34.9533569 C56.5999415,35.0967367 56.4378783,35.2050187 56.2568605,35.2679799 C55.095292,35.2994422 53.9024144,35.2679799 52.6782276,35.2679799 L52.6782276,26.9392798 L56.2887958,26.9392798 C56.4492166,26.9745661 56.5930787,27.0632568 56.6970668,27.1909782 C57.3668002,27.9082426 58.4045535,28.1416752 59.3146746,27.779784 C60.2247958,27.4178927 60.8226238,26.5341042 60.8226238,25.5505339 C60.8226238,24.5669636 60.2247958,23.6831751 59.3146746,23.3212838 C58.4045535,22.9593925 57.3668002,23.1928252 56.6970668,23.9100896 C56.59844,24.0438348 56.4521313,24.1340339 56.2887958,24.161788 C55.0959182,24.1932503 53.9030406,24.161788 52.6469185,24.161788 L52.6469185,19.7451103 L48.6011535,19.7451103 C48.6011535,18.3569936 48.5698444,17.0318015 48.6324626,15.738701 C48.641845,15.5243275 48.7373636,15.3229481 48.8971707,15.1806241 C49.0569777,15.0383001 49.2674021,14.967207 49.4803137,14.9836058 L54.4716143,14.9836058 C54.7235294,14.9641965 54.9561171,15.1200136 55.0351785,15.3611534 C55.7983522,16.8475906 57.4578373,17.6360156 59.0853268,17.2853877 C60.7931152,16.9330475 62.0313236,15.4405372 62.0689381,13.6890055 C62.1065526,11.9374737 60.933571,10.3926747 59.2424986,9.96662742 C57.572509,9.53348179 55.8264796,10.3190953 55.0358047,11.8593994 C54.9462708,12.1076231 54.7005001,12.263115 54.4390528,12.236947 C52.8065951,12.236947 51.1428282,12.236947 49.5103705,12.2054847 C49.2777374,12.2028582 49.054449,12.1131058 48.884188,11.9537863 C48.4416153,11.4841651 47.829809,11.2129603 47.1862767,11.2011272 C46.5427445,11.1892941 45.9214742,11.4378253 45.4621007,11.8908617 C44.9972401,12.3451019 44.7402243,12.9724424 44.7520869,13.6239077 C44.7639495,14.275373 45.0436324,14.8928447 45.524719,15.3296911 C45.6186463,15.4555403 45.7751919,15.5813895 45.7751919,15.7399595 C45.8065011,17.0651516 45.7751919,18.3582521 45.7751919,19.6834442 L37.4870406,19.6834442 L37.4870406,16.1502279 C37.4625914,15.8005219 37.5881616,15.4570069 37.8320671,15.2063589 C38.70324,14.2868828 38.7024981,12.8420315 37.8303814,11.9234594 C36.9582648,11.0048872 35.5220704,10.9362602 34.5671517,11.7675295 C33.5970937,12.5869183 33.47072,14.0409913 34.2847434,15.0169558 C34.6845677,15.4372148 34.8693699,16.0191721 34.7856894,16.5944756 C34.7543802,17.47542 34.7856894,18.3613983 34.7856894,19.2448597 C34.7856894,19.4028005 34.7543802,19.5286497 34.7543802,19.6853319 L26.4969118,19.6853319 L26.4969118,15.7103849 C26.5320263,15.5491793 26.6202852,15.4046134 26.7473848,15.3001165 C27.2108322,14.8512897 27.4752429,14.2340656 27.4811314,13.5873039 C27.4870199,12.9405422 27.2338916,12.3185599 26.7786939,11.8612871 C26.6222817,11.672816 26.5241185,11.4425022 26.4962856,11.1986911 C26.4649765,10.3806713 26.4962856,9.55824676 26.4649765,8.70624768 C26.3688023,8.20865267 26.6289771,7.71059478 27.091159,7.50753404 C28.499589,6.65740143 29.1579809,4.95795901 28.6923076,3.37464631 C28.2473587,1.71589566 26.7280096,0.580569304 25.0191211,0.629875248 C23.357447,0.679384895 21.926442,1.82210662 21.5031065,3.43757091 C21.0602226,5.07586725 21.785266,6.80662657 23.2608007,7.63338324 C23.6082154,7.77781235 23.8143011,8.14022662 23.7617467,8.51432765 C23.7304376,9.39527205 23.7617467,10.2806212 23.7304376,11.1640826 C23.7204507,11.4368533 23.6086797,11.6958583 23.4173464,11.8896032 C22.5656728,12.7071123 22.4580137,14.0359047 23.1668734,14.9810888 C23.6032287,15.4838174 23.807911,16.1484042 23.7304376,16.8109362 L23.7304376,19.7765726 L18.8330644,19.7765726 L18.8330644,24.1932503 C17.6714959,24.1932503 16.6038547,24.2247126 15.5055307,24.1932503 C15.2341017,24.1831533 14.9763789,24.0708447 14.7835423,23.8786273 C13.8366832,22.9635903 12.3396232,22.9635903 11.3927641,23.8786273 C11.1884144,24.0713948 10.9214463,24.1831758 10.6413451,24.1932503 C8.34951724,24.2247126 6.05768935,24.1932503 3.73455233,24.1932503 L3.1709881,24.1932503 C3.13967897,24.3190995 3.10836985,24.351191 3.10836985,24.3820241 C3.10836985,25.6757538 3.07706073,26.9688544 3.10836985,28.2625842 C3.13959288,28.5755857 2.96079376,28.8715342 2.67004211,28.9881048 C1.18946525,29.708466 0.377490466,31.3406189 0.692557827,32.9630518 C1.0276685,34.6758422 2.49512781,35.9293558 4.23129943,35.9858685 C5.96747105,36.0423812 7.51258104,34.8869273 7.95729372,33.1995203 C8.4020064,31.5121132 7.6285527,29.739613 6.09212939,28.9251802 C5.93495758,28.8301641 5.74647666,28.7043149 5.74647666,28.5778364 C5.71516753,28.011515 5.71516753,27.4735097 5.71516753,26.9059298 L10.9581935,26.9059298 C11.1513474,26.9435291 11.3271377,27.0431158 11.4591395,27.1897197 C11.9061569,27.658374 12.5241738,27.9233596 13.1701831,27.9233596 C13.8161924,27.9233596 14.4342093,27.658374 14.8812267,27.1897197 C15.0064632,27.0638705 15.163635,26.9059298 15.3195545,26.9059298 C16.5124321,26.8744675 17.7053097,26.9059298 18.8981874,26.9059298 L18.8981874,35.2409223 L15.3821727,35.2409223 C15.1890188,35.203323 15.0132285,35.1037363 14.8812267,34.9571324 C14.2815729,34.346774 13.4031834,34.1047174 12.5775854,34.322321 C11.7519874,34.5399245 11.1049014,35.1840521 10.8805546,36.0115929 C10.6562078,36.8391338 10.8887633,37.7240717 11.4904486,38.3324079 C12.4630265,39.2518652 13.9919657,39.2094134 14.9125359,38.2373918 C15.0112074,38.1036957 15.1574947,38.0135098 15.3208068,37.9856934 C16.5136845,37.9542311 17.7065621,37.9856934 18.9000659,37.9856934 L18.9000659,46.3773181 C17.8011157,46.3773181 16.7021654,46.4087804 15.6351504,46.3773181 C15.3583706,46.3528743 15.0958958,46.2429747 14.8837315,46.062695 C14.007076,45.2742498 12.6858309,45.0559014 11.8699152,45.8109966 C11.3484827,46.2788637 10.6455602,46.486753 9.95504913,46.3773181 C9.42154165,46.3773181 8.91871712,46.3458558 8.38520964,46.3773181 C8.07026945,46.4249854 7.76643807,46.2396233 7.66322124,45.9368458 C6.74899902,44.2716363 4.75720391,43.5329154 2.98563808,44.2020146 C1.27192346,44.8621662 0.316040019,46.7018005 0.756428441,48.4922139 C1.10561697,50.0250993 2.37394693,51.1732883 3.92741654,51.3628341 C5.4590209,51.570842 6.95512162,50.7876321 7.66322124,49.4071375 C7.75559013,49.1142608 8.05200614,48.9377074 8.35202197,48.9968692 C9.19987305,49.0283315 10.0477241,48.9968692 10.8636399,49.0283315 C11.0932152,49.0452792 11.3119471,49.1332 11.4898224,49.2800299 C11.9353784,49.7630382 12.5611192,50.0375611 13.2165206,50.0375611 C13.871922,50.0375611 14.4976628,49.7630382 14.9432188,49.2800299 C15.0684553,49.185643 15.1936918,49.0283315 15.3514898,49.0283315 C16.5443674,48.9968692 17.737245,49.0283315 18.9933671,49.0283315 L18.9933671,53.3506222 L23.8281221,53.3506222 L23.8281221,57.1990908 C23.8281221,57.639563 23.5457138,57.8283368 23.1061337,57.8283368 L17.1724284,57.8283368 C16.8953313,57.8498503 16.6384393,57.6815372 16.546246,57.4180684 C15.7720002,55.8944328 14.0536003,55.109568 12.4021703,55.5252964 C10.7398709,55.9258688 9.5637649,57.414097 9.55201283,59.131846 C9.54026075,60.849595 10.695893,62.3539324 12.3525544,62.7774343 C14.0092157,63.2009363 15.7397258,62.4344002 16.546246,60.9198224 C16.6277139,60.6615156 16.873897,60.4922642 17.1429979,60.509554 C19.0265548,60.5410163 20.8788026,60.509554 22.7623595,60.5410163 C22.9718516,60.5565187 23.1653222,60.659432 23.295867,60.8248062 C23.7980443,61.578951 24.6852866,61.9779319 25.5795005,61.8517254 C26.4737145,61.7255189 27.21726,61.096374 27.4932792,60.2323971 C27.7692984,59.3684203 27.5291322,58.4219212 26.875126,57.7962452 C26.7805725,57.670396 26.624653,57.5445468 26.624653,57.3859768 C26.5933439,56.0922471 26.624653,54.7676842 26.624653,53.4424922 L34.9128044,53.4424922 L34.9128044,57.4174391 C34.9128044,57.5432883 34.7556326,57.7012291 34.6623314,57.8277075 C34.198884,58.2765344 33.9344733,58.8937585 33.9285848,59.5405202 C33.9226963,60.1872819 34.1758246,60.8092642 34.6310223,61.2665369 C35.5534802,62.1811672 37.0360981,62.1811672 37.958556,61.2665369 C38.4095461,60.8049984 38.6569764,60.1806547 38.6451999,59.5339207 C38.6334234,58.8871867 38.3634288,58.2723573 37.8959377,57.8277075 C37.8020104,57.7326914 37.6454648,57.6068422 37.6454648,57.4803637 C37.6141556,56.1551717 37.6454648,54.8306088 37.6454648,53.4739545 L45.9336161,53.4739545 L45.9336161,57.4489014 C45.9336161,57.5747506 45.7764443,57.7326914 45.6831431,57.8591698 C45.2196958,58.3079967 44.955285,58.9252208 44.9493965,59.5719825 C44.943508,60.2187442 45.1966363,60.8407265 45.651834,61.2979992 C46.5742919,62.2126295 48.0569098,62.2126295 48.9793677,61.2979992 C49.4345654,60.8407265 49.6876937,60.2187442 49.6818052,59.5719825 C49.6759167,58.9252208 49.4115059,58.3079967 48.9480586,57.8591698 C48.853505,57.7333206 48.6975856,57.6074714 48.6975856,57.4489014 C48.6662765,56.1237094 48.6975856,54.7991465 48.6975856,53.4739545 C51.4289936,52.9378369 52.2136002,52.1173001 52.8103522,49.2152175 C52.8533964,49.1757526 52.9092661,49.1533849 52.967524,49.1522929 L56.1072029,49.1522929 C56.3930894,49.1400511 56.6709877,49.2488169 56.8733234,49.4521425 C57.0756591,49.6554681 57.1838953,49.934726 57.1717132,50.2220111 C57.1717132,51.6730524 57.140404,53.1561852 57.2030223,54.6072265 C57.2343314,55.3327471 57.140404,55.8688647 56.388985,56.1211924 C56.2879342,56.1729876 56.1931709,56.2363314 56.1065767,56.3099662 C54.8995012,57.3674583 54.4966162,59.0799996 55.1046848,60.5687031 C55.7411306,62.115426 57.3083616,63.0628678 58.9663522,62.9032058 C60.558525,62.7224471 61.8590891,61.5423154 62.1999585,59.9690317 C62.463021,58.328232 61.688076,56.6950906 60.2537833,55.8676062 L60.2481477,55.8707525 Z M58.3019725,12.5245124 C58.7425582,12.5365016 59.140834,12.7911459 59.3383045,13.1871085 C59.1905139,13.1160467 59.0308096,13.0733644 58.8674153,13.0612593 C58.2808909,13.0954028 57.8181962,13.5754039 57.8029051,14.165586 C57.8007058,14.3176545 57.8328187,14.4682476 57.8968325,14.6060582 C57.4255532,14.4066707 57.1584406,13.9020742 57.2572944,13.3979213 C57.3561482,12.8937684 57.7937814,12.5287133 58.3051034,12.5238832 L58.3019725,12.5245124 Z M3.29998169,32.2104736 C3.30478831,31.6966499 3.66806615,31.2568757 4.16976454,31.1575383 C4.67146293,31.0582008 5.17360274,31.3266203 5.37201953,31.8002052 C5.24562348,31.7357615 5.10546171,31.7033579 4.96374855,31.7058183 C4.3663987,31.7086463 3.87353615,32.1764049 3.83662008,32.7755365 C3.83743661,32.9378614 3.86932535,33.0985125 3.93054745,33.2487295 C3.56636879,33.0242205 3.33299377,32.6363298 3.30436497,32.2079566 L3.29998169,32.2104736 Z M3.29998169,47.5426816 C3.33621419,46.9615674 3.78765316,46.493243 4.36449191,46.4383549 C4.80485033,46.4505732 5.20283259,46.7051836 5.40019774,47.100951 C5.25070754,47.0394444 5.0908416,47.0074002 4.92930851,47.0065641 C4.34211297,47.039233 3.8786014,47.5200816 3.86479829,48.1108908 C3.86259903,48.2629593 3.89471188,48.4135524 3.95872566,48.551363 C3.57361021,48.3593502 3.32153436,47.9734928 3.29935551,47.5420524 L3.29998169,47.5426816 Z M12.1529496,58.9628673 C12.1600499,58.3559445 12.6479319,57.8656756 13.2518999,57.8585406 C13.6792071,57.8631141 14.0623744,58.1240209 14.2249875,58.5211366 C14.0985827,58.456717 13.958427,58.4243149 13.8167165,58.4267497 C13.5246942,58.4248929 13.2440971,58.5406449 13.037602,58.7481503 C12.831107,58.9556556 12.7159185,59.2376255 12.7177662,59.5310765 C12.7157628,59.6831935 12.7480902,59.8337889 12.8123198,59.9715487 C12.4013433,59.8116151 12.1365637,59.4073226 12.1529496,58.9647551 L12.1529496,58.9628673 Z M25.1813024,3.40799634 C25.6126743,3.42200628 25.9997613,3.67800424 26.1831944,4.07059238 C26.0460064,4.00641048 25.8961798,3.97414772 25.7448666,3.97620548 C25.4798913,3.96008553 25.2215314,4.06335829 25.039972,4.25796908 C24.8584126,4.45257986 24.7725074,4.71831985 24.8055929,4.98299909 C24.8005391,5.05801117 24.8112053,5.13325421 24.836902,5.20386443 C24.3985743,5.17240213 24.2733378,4.98299909 24.2733378,4.44876923 C24.2305154,4.18399633 24.30782,3.91385756 24.4840648,3.71238914 C24.6603096,3.51092072 24.9170079,3.39925516 25.1838071,3.40799634 L25.1813024,3.40799634 Z M21.727906,22.4628238 L49.8535185,22.4628238 L49.8535185,22.8403714 L22.1011108,22.8403714 L22.1011108,50.5391511 C21.9758743,50.5391511 21.8506378,50.5076888 21.7254013,50.5076888 L21.727906,22.4628238 Z M57.2656405,58.9949589 C57.2692074,58.4747578 57.6335721,58.027597 58.1403652,57.921467 C58.6471582,57.815337 59.1589382,58.07902 59.3689875,58.5544867 C59.2318567,58.4900673 59.0820232,58.4575879 58.9306597,58.4594705 C58.3314524,58.4778191 57.8499687,58.9616584 57.8317095,59.5637973 C57.8292357,59.7062064 57.8614829,59.84706 57.9256369,59.9740657 C57.5367766,59.8029345 57.2802988,59.422577 57.2662667,58.9962174 L57.2656405,58.9949589 Z" id="Path_319"></path>
                        <path d="M66.0872994,32.8095158 C64.564061,32.7901135 63.1803371,33.698124 62.5855127,35.1074158 C61.9906882,36.5167076 62.3028412,38.1475235 63.3754776,39.2345175 C64.4481139,40.3215115 66.0683055,40.6489054 67.4756925,40.0630525 C68.8830794,39.4771996 69.7982826,38.0943971 69.7917949,36.5635974 C69.7830753,34.5061489 68.1345852,32.8355932 66.0872994,32.8095158 Z M66.0559902,37.6679241 C65.5359948,37.664629 65.0905242,37.2931396 64.9914353,36.7801645 C64.8923464,36.2671894 65.1671601,35.7552016 65.6481661,35.5566513 C66.129172,35.358101 66.6827763,35.5281334 66.9711315,35.9629829 C67.2594866,36.3978324 67.2025052,36.9767245 66.8349612,37.3463794 C66.6289805,37.5545139 66.3480839,37.6702359 66.0559902,37.6672949 L66.0559902,37.6679241 Z" id="Path_320"></path>
                    </g>
                    <path d="M22.2326091,50.3195442 C22.4204638,50.3195442 22.5782618,50.3510065 22.7335551,50.3510065 L48.5391614,50.3510065 C49.8265926,50.3510065 50.3601001,49.7846851 50.3601001,48.5211592 L50.3601001,22.27405 L22.2326091,22.27405 L22.2326091,50.3195442 Z" id="Path_321" fill="#FFFFFF"></path>
                    <g id="Group_88" transform="translate(3.992540, 3.406738)" fill="#37BEB7">
                        <path d="M1.09895026,29.9407832 C1.67657471,29.9281704 2.15117405,29.4786959 2.19790052,28.9000104 C2.22401076,28.2901075 1.75316051,27.7744135 1.14622704,27.7481756 C0.539293568,27.7219376 0.0261102433,28.1950914 2.27373675e-13,28.8049942 C0.0376494171,29.4040372 0.504116243,29.8861408 1.09895026,29.9407832 Z" id="Path_322"></path>
                        <path d="M2.22858346,44.1372023 C2.22858346,43.5272995 1.73656667,43.0328756 1.1296332,43.0328756 C0.522699732,43.0328756 0.0306829417,43.5272995 0.0306829417,44.1372023 C0.0605554824,44.7391241 0.531589949,45.2245999 1.1296332,45.2698451 C1.73350324,45.2373272 2.21151967,44.7446554 2.22858346,44.1372023 Z" id="Path_323"></path>
                        <path d="M56.1635594,10.1887513 C56.1121043,9.58289318 55.6070898,9.1178124 55.0019908,9.11903305 C54.4147953,9.15170203 53.9512837,9.6325506 53.9374806,10.2233598 C53.9445809,10.8302826 54.4324629,11.3205515 55.0364309,11.3276865 C55.6571111,11.3174966 56.1568579,10.8125149 56.1635594,10.1887513 Z" id="Path_324"></path>
                        <path d="M9.95191822,56.6610855 C10.2434051,56.6715538 10.5256438,56.5573519 10.7285788,56.3468264 C10.9315139,56.1363009 11.0361185,55.84919 11.0164284,55.5567587 C11.0086745,54.9692274 10.5365891,54.4948324 9.95191822,54.4870405 C9.65989595,54.4851837 9.37929878,54.6009357 9.17280373,54.808441 C8.96630867,55.0159463 8.85112019,55.2979163 8.85296796,55.5913673 C8.85281698,55.8811735 8.96968564,56.1586398 9.17683203,56.3602761 C9.38397842,56.5619124 9.6636738,56.6704616 9.95191822,56.6610855 Z" id="Path_325"></path>
                        <path d="M56.1641855,55.5252964 C56.1404507,54.9357954 55.6522425,54.4734325 55.0652353,54.4845235 C54.466028,54.5028721 53.9845443,54.9867114 53.966285,55.5888503 C53.9736428,55.8812218 54.0967679,56.1585629 54.3083586,56.3593762 C54.5199493,56.5601896 54.8025199,56.66788 55.0934135,56.6585685 C55.6921949,56.6243364 56.1611841,56.1279727 56.1641855,55.5252964 Z" id="Path_326"></path>
                        <path d="M21.8813207,0.00377547601 C21.6163453,-0.0123444799 21.3579854,0.0909282856 21.1764261,0.28553907 C20.9948667,0.480149855 20.9089615,0.745889842 20.942047,1.01056908 C20.9733561,1.70273968 21.1299017,1.82858888 21.8813207,1.76566428 C21.9895387,1.7558707 22.0982668,1.77772271 22.194412,1.82858888 C22.6026829,2.01736268 22.7911639,1.76566428 22.8832127,1.45104128 C23.0034525,1.1210647 22.9563825,0.752930668 22.7570364,0.464217483 C22.5576903,0.175504299 22.2310051,0.00232824152 21.8813207,0 L21.8813207,0.00377547601 Z" id="Path_327"></path>
                    </g>
                    <path d="M52.8103522,34.7041755 L56.388985,34.7041755 C56.5809885,34.6655479 56.7501454,34.5525264 56.8598743,34.3895525 C57.5815977,33.6971009 58.6476025,33.5102833 59.5599731,33.9163595 C60.4672448,34.316771 61.0130002,35.2604901 60.9100226,36.2508621 C60.8479402,37.2349764 60.1849736,38.0772044 59.2462557,38.3644995 C58.4285216,38.6530799 57.51837,38.4312082 56.9231187,37.7981781 C56.6799788,37.540439 56.3367975,37.4024949 55.983845,37.4206305 C54.947513,37.4520928 53.9118071,37.4206305 52.8128569,37.4206305 L52.8128569,45.7807928 L56.4547342,45.7807928 C56.5799707,45.7807928 56.7371425,45.6228521 56.8630052,45.4970029 C57.4576241,44.8725084 58.3427463,44.6216308 59.174463,44.841847 C60.0061797,45.0620632 60.6533626,45.7186539 60.8645527,46.5565049 C61.0757428,47.3943559 60.817644,48.2813717 60.1905389,48.8729077 C60.0319432,49.0439686 59.9426194,49.2683705 59.9400659,49.5021537 C59.9087568,51.2055226 59.9400659,52.8774292 59.9087568,54.5814274 C59.8966646,54.8991623 60.0854147,55.1899783 60.379646,55.3069481 C61.8217673,56.1038672 62.5645323,57.7640144 62.2005847,59.3769112 C61.8437495,60.9649724 60.5085233,62.1406061 58.8950065,62.2873914 C57.2814897,62.4341766 55.757871,61.5186183 55.1230308,60.0207721 C54.4881905,58.5229259 54.886993,56.7845855 56.1103338,55.7172165 C56.2042612,55.6542919 56.2675056,55.5592757 56.3927421,55.5284427 C57.1441611,55.2767442 57.2405932,54.7104228 57.2067794,54.0138475 C57.1441611,52.5628062 57.2067794,51.0796734 57.1754702,49.6286321 C57.1876524,49.341347 57.0794162,49.0620891 56.8770805,48.8587635 C56.6747448,48.6554379 56.3968465,48.5466722 56.11096,48.5589139 L52.971281,48.5589139 C52.9086628,48.5589139 52.8773537,48.5903762 52.8141092,48.6218385 C52.2173573,51.5239211 51.4327507,52.3444579 48.7013427,52.8805755 L48.7013427,56.8555225 C48.7013427,56.9813717 48.8585145,57.1393124 48.9518157,57.2657909 C49.6509164,57.9362628 49.8736262,58.9667703 49.5142485,59.8682409 C49.1548708,60.7697115 48.2857471,61.3606823 47.3193579,61.3606823 C46.3529688,61.3606823 45.4838451,60.7697115 45.1244674,59.8682409 C44.7650897,58.9667703 44.9877995,57.9362628 45.6869002,57.2657909 C45.8199454,57.1666365 45.9096922,57.0196336 45.9373732,56.8555225 C45.9686823,55.5303304 45.9373732,54.2372299 45.9373732,52.8805755 L37.6479695,52.8805755 L37.6479695,56.8869848 C37.6479695,57.012834 37.773206,57.1386832 37.8984425,57.2336993 C38.3659335,57.678349 38.6359281,58.2931785 38.6477046,58.9399124 C38.6594811,59.5866464 38.4120508,60.2109902 37.9610607,60.6725287 C37.3507957,61.2699129 36.4689323,61.4931905 35.6498419,61.2577026 C34.8307515,61.0222147 34.1998498,60.3640182 33.9963521,59.5326778 C33.7928545,58.7013374 34.0479197,57.8241444 34.6648361,57.2336993 C34.7978813,57.134545 34.8876281,56.9875421 34.9153091,56.8234309 C34.9466182,55.5297011 34.9153091,54.2051383 34.9153091,52.8484839 L26.6271578,52.8484839 L26.6271578,56.7919686 C26.6271578,56.9178178 26.7843296,57.0757586 26.8776308,57.202237 C27.3611963,57.6678652 27.6267231,58.3169677 27.6088381,58.9897351 C27.5909532,59.6625024 27.2913182,60.2964332 26.7837034,60.7354533 C26.2702606,61.1728795 25.5948774,61.3681998 24.9285949,61.2719494 C24.2623124,61.1756989 23.6690304,60.7971086 23.2989979,60.2320565 C23.1684531,60.0666823 22.9749825,59.963769 22.7654904,59.9482666 C20.8819335,59.9168043 19.0296857,59.9482666 17.1461288,59.9168043 C16.8330375,59.9168043 16.707801,60.0426535 16.5493769,60.3270727 C15.767417,61.8581534 14.0283103,62.6334151 12.3739921,62.1883823 C10.7089717,61.7757623 9.54146818,60.2713637 9.54890417,58.5480864 C9.55634015,56.8248091 10.7367826,55.3306413 12.4053012,54.9325467 C14.0580772,54.5015689 15.7856789,55.2906366 16.5493769,56.8253187 C16.6415702,57.0887875 16.8984622,57.2571005 17.1755594,57.2355871 C19.1536698,57.2041248 21.1311541,57.2355871 23.1092646,57.2355871 C23.5475923,57.2355871 23.831253,57.0468133 23.831253,56.6063411 L23.831253,52.7578725 L18.996498,52.7578725 L18.996498,48.4355817 L15.3558731,48.4355817 C15.2306366,48.4355817 15.0734648,48.5935225 14.9476021,48.6872801 C14.5020461,49.1702885 13.8763053,49.4448113 13.2209039,49.4448113 C12.5655024,49.4448113 11.9397616,49.1702885 11.4942057,48.6872801 C11.3240106,48.5278563 11.1006801,48.438087 10.8680232,48.4355817 C10.0201721,48.4041194 9.17294721,48.4355817 8.35640525,48.4041194 C8.06369388,48.3812773 7.78817343,48.5453847 7.66760452,48.8143878 C6.9398151,50.1920032 5.43693105,50.970284 3.89812645,50.7664428 C2.35932185,50.5626016 1.10848017,49.4195424 0.760811718,47.8994641 C0.320423297,46.1090508 1.27630674,44.2694165 2.99002136,43.6092649 C4.76158718,42.9401657 6.7533823,43.6788866 7.66760452,45.3440961 C7.75866971,45.6564743 8.07178266,45.8474989 8.38959292,45.7845683 C8.91240223,45.7530323 9.4366231,45.7530323 9.95943241,45.7845683 C10.6488577,45.8785109 11.3454273,45.6725006 11.8742984,45.2182469 C12.7891463,44.5127501 14.084804,44.6077014 14.8881147,45.4391123 C15.0924644,45.6318798 15.3594325,45.7436607 15.6395337,45.7537353 C16.7040439,45.7851976 17.8054989,45.7537353 18.9044492,45.7537353 L18.9044492,37.3621106 L15.3258163,37.3621106 C15.2005798,37.3621106 15.043408,37.5200513 14.9175453,37.613809 C13.9968246,38.5854907 12.4681677,38.6279347 11.495458,37.7088251 C10.5765449,36.7904839 10.5625943,35.3005659 11.4641489,34.3650119 C11.9107042,33.8991392 12.524954,33.6333242 13.1686202,33.6274064 C13.8122863,33.6214886 14.4312732,33.8759654 14.8862362,34.3335496 C15.0182093,34.4801896 15.1940124,34.5797834 15.3871822,34.6173395 C16.3890742,34.6488018 17.3652926,34.6173395 18.3696894,34.6173395 L18.9031968,34.6173395 L18.9031968,26.2886395 L15.3245639,26.2886395 C15.1673921,26.2886395 15.0114727,26.4465802 14.8862362,26.5724294 C14.4392188,27.0410837 13.8212019,27.3060692 13.1751926,27.3060692 C12.5291833,27.3060692 11.9111663,27.0410837 11.4641489,26.5724294 C11.3370859,26.4197395 11.1589819,26.3188422 10.9632029,26.2886395 C9.23681782,26.2571772 7.50980653,26.2886395 5.72017699,26.2886395 C5.69892381,26.8460861 5.70937721,27.4042976 5.75148612,27.9605461 C5.75148612,28.0863953 5.97127617,28.244336 6.09713885,28.3078899 C7.65092599,29.1170135 8.43931874,30.9001048 7.99541096,32.6011719 C7.55150319,34.302239 5.99381842,35.4670964 4.24485698,35.4058862 C2.49589555,35.3446759 1.02263075,34.0737411 0.697567287,32.3457615 C0.375203921,30.7221687 1.18961909,29.0856286 2.67567775,28.3708145 C2.97698111,28.2670927 3.16144076,27.9617748 3.11400549,27.6452938 C3.08269637,26.3515641 3.11400549,25.0584635 3.11400549,23.7647337 C3.11400549,23.7332714 3.14531462,23.7018091 3.17662374,23.5759599 L10.6482331,23.5759599 C10.928322,23.5658287 11.195271,23.4540558 11.3996521,23.2613369 C12.3465112,22.3462999 13.8435712,22.3462999 14.7904303,23.2613369 C14.9913452,23.4412152 15.2444328,23.551504 15.5124187,23.5759599 C16.5769289,23.6074222 17.6783839,23.5759599 18.8399524,23.5759599 L18.8399524,19.1592823 L23.7373256,19.1592823 L23.7373256,16.1936458 C23.8300944,15.5297896 23.6234825,14.8589375 23.1737614,14.3637985 C22.3891547,13.5117994 22.6101971,12.1557743 23.4242344,11.2723129 C23.5908748,11.0627115 23.6989438,10.8122852 23.7373256,10.5467922 C23.7686347,9.66584783 23.7373256,8.77986946 23.7686347,7.89703732 C23.8128238,7.52459517 23.6094342,7.16692209 23.2676887,7.01609292 C21.7919142,6.18953106 21.0665936,4.4587265 21.5093683,2.82028058 C21.928285,1.17885898 23.3936644,0.0260018455 25.0798939,0.0112428598 C26.7661233,-0.00351612591 28.2512639,1.12351612 28.6985694,2.75735598 C29.1703465,4.3409207 28.5105174,6.04407263 27.0974208,6.89024372 C26.6302108,7.08784068 26.3677333,7.59030673 26.4712383,8.08895735 C26.5025475,8.90697715 26.4712383,9.72940168 26.5025475,10.5814008 C26.5160006,10.8288169 26.616025,11.0634975 26.7849558,11.2439968 C27.2401534,11.7012696 27.4932817,12.3232518 27.4873932,12.9700136 C27.4815047,13.6167753 27.217094,14.2339993 26.7536466,14.6828262 C26.6590931,14.8086754 26.5031736,14.9666161 26.5031736,15.0930946 C26.4718645,16.4182867 26.5031736,17.7113872 26.5031736,19.0680416 L34.7600159,19.0680416 C34.7600159,18.9101008 34.791325,18.7534186 34.791325,18.6275694 L34.791325,15.9778145 C34.8443605,15.4054427 34.6635327,14.8360014 34.290379,14.4002947 C33.4759993,13.424443 33.602398,11.970084 34.5727873,11.1508684 C35.527706,10.3195992 36.9639004,10.3882261 37.8360171,11.3067983 C38.7081337,12.2253704 38.7088756,13.6702217 37.8377028,14.5896978 C37.5891775,14.8374251 37.4626079,15.183047 37.49205,15.5335668 L37.49205,19.0667831 L45.7802014,19.0667831 L45.7802014,15.1232984 C45.7451332,14.9620741 45.6568655,14.817494 45.5297284,14.71303 C44.8702398,14.1229572 44.5901549,13.2144167 44.8021892,12.3530354 C45.0142235,11.4916542 45.683505,10.8190983 46.5406926,10.6060266 C47.3978802,10.3929549 48.3019974,10.6744101 48.8891974,11.3371252 C49.0594255,11.4964969 49.2827349,11.5862576 49.5153799,11.5888236 C51.1478377,11.6202859 52.8116045,11.5888236 54.4440623,11.6202859 C54.7055096,11.6464539 54.9512802,11.490962 55.0408142,11.2427383 C55.8211117,9.69145863 57.5762824,8.90173208 59.2475081,9.34996634 C60.9126854,9.76720587 62.0806654,11.2710016 62.0789961,12.9955593 C62.0773267,14.720117 60.9064377,16.2216266 59.2404558,16.63561 C57.5744739,17.0495934 55.8421348,16.2695133 55.0408142,14.7444923 C54.9155777,14.4927939 54.7903412,14.3342239 54.4772499,14.3669447 C52.8134831,14.398407 51.1497162,14.3669447 49.4853232,14.3669447 C49.2712017,14.3451012 49.0577523,14.414283 48.8966835,14.5577306 C48.7356148,14.7011783 48.6416209,14.9058052 48.6374721,15.1220399 C48.5748538,16.4151404 48.606163,17.7403325 48.606163,19.1284492 L52.6563113,19.1284492 L52.6563113,23.5451269 L56.2981886,23.5451269 C56.4234251,23.5451269 56.5805969,23.3871861 56.7064596,23.2934285 C57.3761929,22.5761641 58.4139462,22.3427315 59.3240674,22.7046227 C60.2341885,23.066514 60.8320165,23.9503025 60.8320165,24.9338728 C60.8320165,25.9174431 60.2341885,26.8012316 59.3240674,27.1631229 C58.4139462,27.5250142 57.3761929,27.2915815 56.7064596,26.5743171 C56.5812231,26.479301 56.4559866,26.3226187 56.2981886,26.3226187 C55.105311,26.2911564 53.9124333,26.3226187 52.6876204,26.3226187 C52.8103522,29.1517088 52.8103522,31.8964798 52.8103522,34.7041755 Z M21.8562734,49.9413674 C22.0441282,49.9413674 22.2019262,49.9728297 22.3572194,49.9728297 L48.1628258,49.9728297 C49.4496308,49.9728297 49.9837644,49.4065083 49.9837644,48.1429823 L49.9837644,21.8952439 L21.8556472,21.8952439 L21.8562734,49.9413674 Z M4.5579823,32.779312 C5.13560675,32.7666991 5.61020609,32.3172246 5.65693256,31.7385391 C5.68304263,31.1286364 5.21219242,30.6129425 4.60525907,30.5867046 C3.99832571,30.5604666 3.48514245,31.0336202 3.45903204,31.6435229 C3.47609583,32.250976 3.95411226,32.7436479 4.5579823,32.7761657 L4.5579823,32.779312 Z M5.65693256,46.975731 C5.65693256,46.3658282 5.16491577,45.8714043 4.5579823,45.8714043 C3.95104883,45.8714043 3.45903204,46.3658282 3.45903204,46.975731 C3.48890458,47.5776528 3.95993905,48.0631286 4.5579823,48.1083738 C5.16185234,48.0758559 5.63986877,47.5831841 5.65693256,46.975731 Z M59.5919085,13.0593715 C59.5404534,12.4535134 59.0354389,11.9884327 58.4303399,11.9896533 C57.8431444,12.0223223 57.3796328,12.5031709 57.3658297,13.09398 C57.37293,13.7009029 57.860812,14.1911718 58.46478,14.1983068 C59.0796705,14.1776681 59.5727915,13.6804818 59.5912823,13.0625177 L59.5919085,13.0593715 Z M13.3796411,59.4977264 C13.671128,59.5081947 13.9533667,59.3939929 14.1563017,59.1834674 C14.3592368,58.9729419 14.4638414,58.685831 14.4441514,58.3933997 C14.4363974,57.8058684 13.964312,57.3314734 13.3796411,57.3236815 C13.0876189,57.3218247 12.8070217,57.4375767 12.6005266,57.645082 C12.3940316,57.8525873 12.2788431,58.1345573 12.2806909,58.4280082 C12.2805399,58.7178145 12.3974086,58.9952807 12.604555,59.196917 C12.8117013,59.3985533 13.0913967,59.5071026 13.3796411,59.4977264 Z M59.5919085,58.3650836 C59.5685014,57.7754325 59.0800951,57.3128819 58.4929582,57.3243107 C57.8937509,57.3426593 57.4122672,57.8264986 57.3940079,58.4286375 C57.4013657,58.721009 57.5244908,58.9983501 57.7360815,59.1991634 C57.9476723,59.3999768 58.2302428,59.5076672 58.5211364,59.4983557 C59.1172106,59.4609575 59.5825249,58.9658614 59.5856466,58.3657129 L59.5919085,58.3650836 Z M25.3096698,2.84167494 C25.0446944,2.82555499 24.7863345,2.92882775 24.6047752,3.12343854 C24.4232158,3.31804932 24.3373106,3.58378931 24.3703961,3.84846855 C24.4017052,4.54063915 24.5582508,4.66648835 25.3096698,4.60356375 C25.4178878,4.59377017 25.5266159,4.61562218 25.6227611,4.66648835 C26.031032,4.85526215 26.219513,4.60356375 26.3115618,4.28894075 C26.4318016,3.95896417 26.3847316,3.59083014 26.1853855,3.30211695 C25.9860394,3.01340377 25.6593542,2.84022771 25.3096698,2.83789947 L25.3096698,2.84167494 Z" id="Path_328" fill="#000078"></path>
                    <path d="M69.9508453,35.9658137 C69.9564381,37.3015101 69.2524898,38.5387428 68.1041709,39.2114583 C66.955852,39.8841737 65.5376194,39.8901704 64.3837077,39.2271894 C63.2297959,38.5642084 62.5155117,37.3329724 62.5099188,35.997276 C62.5122325,33.9195465 64.1788238,32.2310489 66.2463497,32.2117321 C68.2683488,32.2965342 69.883476,33.9332806 69.9508453,35.9658137 Z M66.1837315,34.9250408 C65.8953361,34.9248891 65.6192207,35.0423295 65.4185661,35.2504894 C65.2179115,35.4586492 65.1098908,35.7397129 65.1192212,36.0293676 C65.1173555,36.4232668 65.3273895,36.7874515 65.668426,36.9816511 C66.0094624,37.1758507 66.4282939,37.1697669 66.763602,36.9657428 C67.0989102,36.7617188 67.2983813,36.3915858 67.2851865,35.9979053 C67.2853374,35.708099 67.1684688,35.4306327 66.9613224,35.2289964 C66.754176,35.0273601 66.4744806,34.9188109 66.1862362,34.9281871 L66.1837315,34.9250408 Z" id="Path_329" fill="#37BEB7"></path>
                    <polygon id="Path_330" fill="#FFFFFF" points="32.5295539 32.4011351 32.5295539 40.3510291 40.4094342 40.3510291 40.4094342 32.4011351"></polygon>
                    <path d="M29.3272566,42.6226072 L29.3272566,29.4040364 L42.5127812,29.4040364 L42.5127812,42.6226072 L29.3272566,42.6226072 Z M31.9641111,32.0229583 L31.9641111,39.9753692 L39.8471224,39.9753692 L39.8471224,32.0254752 L31.9641111,32.0229583 Z" id="Path_331" fill="#FBC316"></path>
                </g>
            </g>
        </g>
    </g>
</svg>