<?xml version="1.0" encoding="UTF-8"?>
<svg width="63px" height="63px" viewBox="0 0 63 63" version="1.1" xmlns="http://www.w3.org/2000/svg" xmlns:xlink="http://www.w3.org/1999/xlink">
    <!-- Generator: Sketch 52 (66869) - http://www.bohemiancoding.com/sketch -->
    <title>charts</title>
    <desc>Created with Sketch.</desc>
    <g id="Products" stroke="none" stroke-width="1" fill="none" fill-rule="evenodd">
        <g transform="translate(-1069.000000, -197.000000)" fill-rule="nonzero" id="charts">
            <g transform="translate(1069.000000, 196.000000)">
                <g id="Group">
                    <rect id="Rectangle_34-2" x="0" y="0" width="64" height="64" rx="25"></rect>
                </g>
                <g id="Group_91" transform="translate(0.000000, 1.000000)">
                    <g id="Group_90" transform="translate(0.820051, 0.768759)" fill="#F4F4F4">
                        <path d="M59.9409922,58.8428526 C59.2432997,58.8082461 58.5462252,58.8428526 57.8139261,58.8428526 L57.8139261,21.532681 C57.8139261,20.1731386 57.4301644,19.7893768 56.0706219,19.7893768 L49.7592549,19.7893768 C48.3644879,19.7893768 48.0159507,20.1379141 48.0159507,21.532681 L48.0159507,58.8428526 L42.9596886,58.8428526 L42.9596886,37.6401696 C42.9596886,36.3152337 42.5413203,35.8968654 41.2509908,35.8968654 L34.8351863,35.8968654 C33.5448569,35.8968654 33.1617131,36.3152337 33.1617131,37.6055631 L33.1617131,58.8063922 L28.105451,58.8063922 L28.105451,28.9582549 C28.105451,27.633319 27.7216892,27.2495572 26.3967533,27.2495572 L20.0853863,27.2495572 C18.6560127,27.2495572 18.3068575,27.5980944 18.3068575,29.0280859 L18.3068575,58.8428526 L13.2505954,58.8428526 L13.2505954,42.5586235 C13.2505954,41.3035186 12.8668337,40.8851503 11.6117288,40.8851503 L5.23053072,40.8851503 C3.80115719,40.8851503 3.45200196,41.2336876 3.45200196,42.6636791 L3.45200196,58.8780771 L2.85936503,58.8780771 C2.27809386,58.8547968 1.6959501,58.866353 1.11606078,58.9126837 C0.482636634,58.9361709 -0.0143538379,59.4642749 0.000617973856,60.0979575 C-0.0201524189,60.7462602 0.469804144,61.2975632 1.11606078,61.3530624 C1.33563027,61.3819959 1.55713971,61.3935673 1.77852876,61.387669 L59.5590843,61.387669 C59.862951,61.3992059 60.1671367,61.3757751 60.465652,61.3178379 C61.0087456,61.19171 61.3788777,60.6885822 61.3376131,60.1325641 C61.2908685,59.3988286 60.6761218,58.83114 59.9409922,58.8428526 Z M5.89361667,43.3935062 L10.635948,43.3935062 L10.635948,43.9496827 L6.45164706,43.9496827 L6.45164706,58.8039203 L5.89547059,58.8039203 L5.89361667,43.3935062 Z M20.7824608,29.759767 L25.5247922,29.759767 L25.5247922,30.3159435 L21.3404912,30.3159435 L21.3404912,58.8045382 L20.7843147,58.8045382 L20.7824608,29.759767 Z M35.6719229,38.4422997 L40.4142542,38.4422997 L40.4142542,38.9984761 L36.2299533,38.9984761 L36.2299533,58.8045382 L35.6737768,58.8045382 L35.6719229,38.4422997 Z M50.5261605,22.3329572 L55.2684918,22.3329572 L55.2684918,22.8891337 L51.0841908,22.8891337 L51.0841908,58.8045382 L50.5280144,58.8045382 L50.5261605,22.3329572 Z" id="Path_332"></path>
                        <path d="M8.08989575,31.5722843 C10.6650364,31.6728228 12.8833561,29.7735986 13.1807644,27.2137147 C13.3247706,25.9197482 12.9624711,24.6202534 12.1697592,23.5874441 C14.819631,21.3559405 17.4348964,19.1244369 20.0853863,16.8923154 C21.1597121,17.7080967 22.5159587,18.0597327 23.851319,17.8687141 C25.1789728,17.6820361 26.3741647,16.9649209 27.1636588,15.8813101 C29.1164562,17.1018085 30.9994225,18.2870824 32.9169954,19.4729742 C33.0774878,19.5329707 33.2041594,19.6594917 33.2643469,19.8199125 C33.3245343,19.9803334 33.3123465,20.1589523 33.2309261,20.3097108 C32.6035425,22.5429012 33.6096486,24.9124325 35.6521245,26.0119969 C37.6946003,27.1115614 40.2265716,26.6467499 41.745323,24.8934263 C43.2640744,23.1401026 43.3629593,20.5677205 41.9832899,18.7029788 L50.6658225,10.0204461 C52.8967301,11.1330012 55.606621,10.4229891 57.0053645,8.35943775 C58.4041079,6.29588638 58.0599588,3.51574482 56.200259,1.85555079 C54.3405592,0.195356773 51.5393357,0.167556504 49.6470528,1.79051461 C47.7547699,3.41347271 47.3555119,6.18623646 48.7130252,8.27714183 C48.7130252,8.31174837 48.6778007,8.34697288 48.6778007,8.38157941 C45.8536601,11.2057199 42.9924412,14.0304784 40.1695366,16.854619 C40.005238,16.9615809 39.8052689,16.9991307 39.6133601,16.9590565 C38.1651456,16.4759124 36.5735674,16.7089158 35.3246216,17.586918 C35.0915187,17.7796713 34.7543584,17.7796713 34.5212556,17.586918 C32.6728958,16.4010261 30.7899294,15.2157523 28.907581,14.1003095 C28.4112992,13.8684172 28.1071854,13.3567415 28.1406755,12.8099801 C28.1344681,10.7977485 26.8428253,9.01467924 24.9327732,8.38157941 C23.182286,7.64866281 21.1614833,8.06396008 19.8419046,9.42780915 C18.3846969,10.7446316 17.8739835,12.8148798 18.5515752,14.6583399 C18.5983346,14.8726774 18.5326453,15.0960675 18.3773065,15.2509768 C15.7620412,17.4478739 13.1467758,19.6447709 10.4969039,21.84105 C10.3113893,21.9620268 10.0837304,21.9998953 9.86904248,21.9454876 C8.03509935,21.3260385 6.00834882,21.833904 4.68321165,23.2449589 C3.35807449,24.6560138 2.97836611,26.7106346 3.71165477,28.5021011 C4.44494344,30.2935676 6.15630946,31.4922633 8.09051373,31.5691944 L8.08989575,31.5722843 Z M52.9319327,3.04908301 C53.5275157,3.04830509 54.1014053,3.27256352 54.5386647,3.67694444 C54.211314,3.52152315 53.8547301,3.43727415 53.492435,3.4297549 C52.8348831,3.4171895 52.1996113,3.66809829 51.7281122,4.12659687 C51.2566132,4.58509545 50.988045,5.2131055 50.9822252,5.87075163 C50.9783557,6.59877861 51.2822526,7.29455438 51.8189618,7.78647059 C50.9501894,7.36930851 50.4050022,6.48328866 50.4241948,5.51974248 C50.4286039,4.85841831 50.6956777,4.22596162 51.1666066,3.76163943 C51.6375354,3.29731724 52.2737021,3.03920506 52.9350225,3.04413922 L52.9319327,3.04908301 Z M38.0424706,19.1584255 C38.6380536,19.1576476 39.2119432,19.381906 39.6492026,19.7862869 C38.5375807,19.2537504 37.2035294,19.6201148 36.5198069,20.6456985 C35.8360844,21.6712822 36.0109986,23.0436236 36.9301176,23.8649144 C36.072421,23.4485113 35.5203571,22.5866424 35.5007441,21.6334108 C35.5637392,20.2661283 36.6776728,19.1827541 38.0461784,19.1578075 L38.0424706,19.1584255 Z M23.188233,10.5104993 C23.7813453,10.5225 24.3508578,10.745048 24.794965,11.1383608 C24.4676518,10.9828327 24.1110447,10.8985782 23.7487353,10.8911712 C22.4023639,10.8571952 21.2809569,11.9162251 21.2379075,13.2623369 C21.2300893,14.0092367 21.5485205,14.7223781 22.1098686,15.2151343 C21.2342362,14.7645593 20.6829162,13.8633311 20.6804951,12.8785752 C20.7235445,11.5324633 21.8449515,10.4734334 23.1913229,10.5074095 L23.188233,10.5104993 Z M8.26416438,24.109632 C8.85975885,24.108793 9.43367006,24.3330598 9.87089641,24.7374935 C9.54937887,24.5660575 9.18891275,24.4808913 8.82466667,24.4903039 C7.47649978,24.503899 6.38163494,25.5834587 6.3490634,26.9313007 C6.34198081,27.6531856 6.63256333,28.3461131 7.15242941,28.8470196 C6.272855,28.4283787 5.73509029,27.5180897 5.79288693,26.545685 C5.83735784,25.2030224 6.92533469,24.1302544 8.2684902,24.1046882 L8.26416438,24.109632 Z" id="Path_333"></path>
                    </g>
                    <polygon id="Path_334" fill="#37BEB7" points="56.0885431 59.1555474 56.0885431 22.6475059 51.3462118 22.6475059 51.3462118 59.1555474"></polygon>
                    <polygon id="Path_335" fill="#37BEB7" points="21.5679056 30.0743157 21.5679056 59.1190869 26.3102369 59.1190869 26.3102369 30.0743157"></polygon>
                    <polygon id="Path_336" fill="#37BEB7" points="41.199081 59.1555474 41.199081 38.7920729 36.4567497 38.7920729 36.4567497 59.1555474"></polygon>
                    <polygon id="Path_337" fill="#37BEB7" points="6.67844346 59.1209408 11.4207748 59.1209408 11.4207748 43.7086729 6.67844346 43.7086729"></polygon>
                    <path d="M53.6475464,8.14180556 C54.6451149,8.16334692 55.5567977,7.57991313 55.9551222,6.6650664 C56.3534467,5.75021967 56.1594295,4.68536387 55.4640421,3.96979185 C54.7686548,3.25421984 53.7097846,3.02982152 52.7839181,3.40181348 C51.8580515,3.77380543 51.2487774,4.66842582 51.2417742,5.66620229 C51.2228972,6.31626415 51.4680036,6.94627631 51.9212356,7.41266403 C52.3744676,7.87905176 52.9972106,8.14207958 53.6475464,8.14180556 Z" id="Path_338" fill="#FBC316"></path>
                    <path d="M9.04960915,29.2381971 C10.4056787,29.2335735 11.5039049,28.1355267 11.5087499,26.7794579 C11.5135949,25.4233891 10.4232429,24.3175229 9.067241,24.3032096 C7.71123907,24.2888964 6.59778672,25.3715004 6.57400588,26.7273693 C6.55735916,27.3921182 6.81166824,28.0350729 7.27853094,28.5085784 C7.74539364,28.9820839 8.38469137,29.2454509 9.04960915,29.2381971 Z" id="Path_339" fill="#FBC316"></path>
                    <path d="M38.8279154,24.251148 C40.1709405,24.2252723 41.2587401,23.1526791 41.3035186,21.8101513 C41.3175594,20.8058332 40.7233817,19.8925717 39.7995127,19.4984677 C38.8756437,19.1043637 37.8052167,19.3075383 37.0900058,20.0127512 C36.3747949,20.7179642 36.1565724,21.785425 36.5376323,22.7147502 C36.9186922,23.6440754 37.8234991,24.2510499 38.8279154,24.251148 Z" id="Path_340" fill="#FBC316"></path>
                    <path d="M23.9736778,10.6532513 C22.6275447,10.6196208 21.506518,11.6785522 21.463468,13.024417 C21.4130372,14.0417164 21.9860996,14.987514 22.9111744,15.4137508 C23.8362493,15.8399877 24.9275408,15.6610567 25.6680643,14.961724 C26.4085878,14.2623913 26.6496136,13.1831137 26.2769589,12.2351845 C25.9043042,11.2872553 24.9928144,10.6610604 23.9742958,10.6532513 L23.9736778,10.6532513 Z" id="Path_341" fill="#FBC316"></path>
                    <path d="M43.1518784,58.5653824 L48.2081405,58.5653824 L48.2081405,21.2552108 C48.2081405,19.8604438 48.5566778,19.5119065 49.9514448,19.5119065 L56.2628118,19.5119065 C57.6223542,19.5119065 58.006116,19.8956683 58.006116,21.2552108 L58.006116,58.5653824 L60.133182,58.5653824 C60.4675723,58.5410021 60.7975195,58.653519 61.0473428,58.8771248 C61.2971662,59.1007307 61.4454268,59.4162365 61.458118,59.7512742 C61.5099103,60.3102684 61.1352256,60.8195846 60.5861569,60.936548 C60.287817,60.9957731 59.9834798,61.0192156 59.6795892,61.0063791 L1.89903366,61.0063791 C1.67762888,61.0120341 1.4561224,61.0002563 1.23656569,60.9711546 C0.590309046,60.9156553 0.100352483,60.3643524 0.121122876,59.7160497 C0.119118335,59.0871762 0.609326318,58.5665677 1.23718366,58.5307758 C1.82982059,58.4955513 2.38785098,58.4955513 2.98048791,58.4955513 L3.57312484,58.4955513 L3.57312484,42.2811533 C3.57312484,40.8517797 3.92166209,40.5026245 5.35165359,40.5026245 L11.7328516,40.5026245 C12.9879565,40.5026245 13.3717183,40.9209928 13.3717183,42.1760977 L13.3717183,58.4597088 L18.4279804,58.4597088 L18.4279804,28.6461781 C18.4279804,27.2168046 18.7765176,26.8676493 20.2065092,26.8676493 L26.5178761,26.8676493 C27.8428121,26.8676493 28.2265739,27.2514111 28.2265739,28.5763471 L28.2265739,58.4244843 L33.2828359,58.4244843 L33.2828359,37.2242732 C33.2828359,35.9339438 33.6665977,35.5155755 34.9563092,35.5155755 L41.3721137,35.5155755 C42.6624431,35.5155755 43.0808114,35.9339438 43.0808114,37.2588797 L43.0808114,57.6921853 C43.136483,57.9797596 43.1603157,58.2725904 43.1518784,58.5653824 Z M55.4952882,58.5653824 L55.4952882,22.0573408 L50.7529569,22.0573408 L50.7529569,58.5653824 L55.4952882,58.5653824 Z M21.0123471,29.5206111 L21.0123471,58.5653824 L25.7546784,58.5653824 L25.7546784,29.5206111 L21.0123471,29.5206111 Z M40.608916,58.5653824 L40.608916,38.2019078 L35.8665846,38.2019078 L35.8665846,58.5653824 L40.608916,58.5653824 Z M6.12597484,58.5653824 L10.8683062,58.5653824 L10.8683062,43.1531144 L6.11794118,43.1531144 L6.12597484,58.5653824 Z" id="Path_342" fill="#000078"></path>
                    <path d="M48.9750461,8.03736797 C47.511687,5.80335335 48.0823995,2.81148554 50.2653755,1.27302614 C52.1690441,-0.0867432959 54.7683328,0.0884576647 56.4723049,1.69139444 C58.2968564,3.35598099 58.6156501,6.11062005 57.2195187,8.1479354 C55.8233873,10.1852508 53.1393508,10.8821104 50.9284614,9.7812902 L42.2459288,18.4638229 C43.6355889,20.3301664 43.541602,22.9115116 42.0198942,24.6718521 C40.4981863,26.4321926 37.9575857,26.8985883 35.9098539,25.7935145 C33.8621221,24.6884408 32.857411,22.3087912 33.493565,20.0705549 C33.5749854,19.9197964 33.5871732,19.7411775 33.5269858,19.5807567 C33.4667983,19.4203358 33.3401267,19.2938148 33.1796343,19.2338183 C31.2639154,18.0485444 29.3790951,16.8626526 27.4262977,15.6421542 C26.6308196,16.7192004 25.4386354,17.434511 24.1139578,17.6295582 C22.7796025,17.8035382 21.4297514,17.4535604 20.3480252,16.6531595 C17.6981533,18.8846631 15.0828879,21.0815601 12.433016,23.3482882 C13.2214368,24.3832361 13.5832488,25.6809823 13.4440212,26.9745588 C13.1712729,29.0375569 11.6340909,30.7079588 9.60081476,31.1508368 C7.56753865,31.5937148 5.47489084,30.7139443 4.36885293,28.9512666 C3.26281501,27.1885888 3.38095017,24.9216051 4.66421014,23.2834365 C5.94747012,21.6452678 8.12022664,20.9877725 10.0964569,21.6395905 C10.3111448,21.6939982 10.5388036,21.6561298 10.7243183,21.5351529 C13.3741902,19.3722444 15.9894556,17.1765833 18.6047209,14.9450797 C18.7494717,14.7840687 18.8135434,14.5661795 18.7789895,14.3524428 C18.0836554,12.5100013 18.5968782,10.4295811 20.069319,9.12191209 C21.3820325,7.74561726 23.411101,7.32862127 25.1601876,8.07568235 C27.0702397,8.70878218 28.3618825,10.4918514 28.3680899,12.504083 C28.3587139,13.0447266 28.6556122,13.5442621 29.1349954,13.7944124 C31.0179618,14.9450797 32.8657036,16.0957471 34.7486699,17.2816389 C34.9817728,17.4743922 35.3189331,17.4743922 35.5520359,17.2816389 C36.8074912,16.4201146 38.3910471,16.1882856 39.8407745,16.6537775 C40.0150431,16.689002 40.2943673,16.689002 40.396951,16.5493399 C43.256316,13.7251993 46.0823105,10.9004408 48.905215,8.07630033 C48.9416755,8.10719902 48.9416755,8.07197451 48.9750461,8.03736797 Z M53.089516,7.75866176 C54.0870845,7.78020313 54.9987673,7.19676934 55.3970918,6.28192261 C55.7954163,5.36707588 55.6013991,4.30222008 54.9060118,3.58664806 C54.2106244,2.87107605 53.1517543,2.64667773 52.2258877,3.01866968 C51.3000211,3.39066164 50.690747,4.28528203 50.6837438,5.2830585 C50.6648668,5.93312036 50.9099732,6.56313252 51.3632052,7.02952024 C51.8164372,7.49590797 52.4391802,7.75893579 53.089516,7.75866176 Z M8.49157876,28.8544353 C9.84764834,28.8498118 10.9458745,27.751765 10.9507195,26.3956962 C10.9555645,25.0396274 9.86521253,23.9337611 8.5092106,23.9194479 C7.15320868,23.9051346 6.03975633,24.9877386 6.01597549,26.3436075 C5.99932876,27.0083565 6.25363784,27.6513111 6.72050055,28.1248166 C7.18736325,28.5983222 7.82666098,28.8616892 8.49157876,28.8544353 Z M38.269885,23.8680042 C39.6129101,23.8421285 40.7007097,22.7695353 40.7454882,21.4270075 C40.750258,20.7657362 40.4920924,20.1296645 40.0278056,19.6587714 C39.5635187,19.1878784 38.9311577,18.9207525 38.269885,18.9161797 C36.9031437,18.9310656 35.7935318,20.0253801 35.7596752,21.391783 C35.7637571,22.053266 36.0307069,22.6859773 36.5016894,23.1504683 C36.972672,23.6149593 37.609027,23.8731027 38.2705029,23.8680042 L38.269885,23.8680042 Z M23.4156474,10.2688716 C22.0694065,10.2352361 20.9482016,11.2940751 20.9048196,12.6400373 C20.8543889,13.6573366 21.4274512,14.6031342 22.3525261,15.0293711 C23.2776009,15.455608 24.3688925,15.276677 25.109416,14.5773443 C25.8499395,13.8780116 26.0909652,12.798734 25.7183105,11.8508048 C25.3456558,10.9028756 24.4341661,10.2766807 23.4156474,10.2688716 Z" id="Path_343" fill="#000078"></path>
                </g>
            </g>
        </g>
    </g>
</svg>