<?xml version="1.0" encoding="UTF-8"?>
<svg width="58px" height="63px" viewBox="0 0 58 63" version="1.1" xmlns="http://www.w3.org/2000/svg" xmlns:xlink="http://www.w3.org/1999/xlink">
    <!-- Generator: Sketch 52 (66869) - http://www.bohemiancoding.com/sketch -->
    <title>markets</title>
    <desc>Created with Sketch.</desc>
    <g id="Home" stroke="none" stroke-width="1" fill="none" fill-rule="evenodd">
        <g id="1.1-Explorer---Home---BTC" transform="translate(-796.000000, -1917.000000)" fill-rule="nonzero">
            <g id="products" transform="translate(0.000000, 1721.000000)">
                <g id="buckets" transform="translate(190.000000, 189.000000)">
                    <g id="markets" transform="translate(603.000000, 7.000000)">
                        <g>
                            <g id="Group">
                                <rect id="Rectangle_23-2" x="0" y="0" width="64" height="64" rx="25"></rect>
                            </g>
                            <g id="Group_15" transform="translate(3.000000, 0.000000)">
                                <g id="Group_14" transform="translate(0.523810, 1.253902)" fill="#A0A0A0" opacity="0.2">
                                    <g id="Group_13">
                                        <g id="Group_5" transform="translate(0.985884, 50.336184)">
                                            <g id="Group_4">
                                                <path d="M50.3331066,0 L4.68185941,0 L4.68185941,3.03693944 L0,3.03693944 L0,11.1360656 L55.0155896,11.1360656 L55.0155896,3.03693944 L50.3331066,3.03693944 L50.3331066,0 Z M52.2119615,5.82918477 L52.2119615,8.31338881 L2.83356009,8.31338881 L2.83356009,5.82918477 L7.51604308,5.82918477 L7.51604308,2.79224534 L47.530102,2.79224534 L47.530102,5.79875327 C49.100907,5.82918477 50.6411565,5.82918477 52.2119615,5.82918477 Z" id="Path_28"></path>
                                            </g>
                                        </g>
                                        <g id="Group_7">
                                            <g id="Group_6">
                                                <path d="M56.4629252,20.6083356 C47.2833711,13.7974762 38.1142101,6.99696769 28.9554422,0.206809986 C28.8382723,0.0750998143 28.6700538,-0.00029787291 28.4933673,-0.00029787291 C28.3166809,-0.00029787291 28.1484624,0.0750998143 28.0312925,0.206809986 C19.8685941,6.28110289 11.715873,12.3351081 3.57312925,18.3688257 C2.4026644,19.2277393 1.26587302,20.0866528 -4.54747351e-13,21.039345 L56.9867347,21.039345 C56.7404195,20.8517876 56.6169501,20.7313037 56.4629252,20.6083356 Z M48.3307823,18.2483418 L48.0813492,18.2483418 C41.982294,13.7080449 35.8728458,9.16754097 29.7530045,4.62683002 C23.6231859,9.16733395 17.5239229,13.7078379 11.3941043,18.2483418 L8.65034014,18.2483418 C8.619161,18.2179103 8.619161,18.1862367 8.58798186,18.1564263 C15.2108466,13.2480531 21.8438964,8.31897827 28.4871315,3.36920173 C35.1099962,8.30862742 41.7328609,13.2273514 48.3557256,18.1253737 C48.3613379,18.1849946 48.3307823,18.2154261 48.3307823,18.2433734 L48.3307823,18.2483418 Z" id="Path_29"></path>
                                            </g>
                                        </g>
                                        <g id="Group_9" transform="translate(8.039853, 24.381842)">
                                            <g id="Group_8">
                                                <path d="M10.2267574,22.6410356 L10.2267574,0 L0,0 L0,22.6410356 L10.2267574,22.6410356 Z M2.83356009,2.79224534 L7.42312925,2.79224534 L7.42312925,19.8189798 L2.83356009,19.8189798 L2.83356009,2.79224534 Z" id="Path_30"></path>
                                            </g>
                                        </g>
                                        <g id="Group_11" transform="translate(38.720125, 24.381842)">
                                            <g id="Group_10">
                                                <path d="M10.1955782,22.6410356 L10.1955782,0 L0,0 L0,22.6410356 L10.1955782,22.6410356 Z M2.83356009,2.79224534 L7.3925737,2.79224534 L7.3925737,19.8494113 L2.83356009,19.8494113 L2.83356009,2.79224534 Z" id="Path_31"></path>
                                            </g>
                                        </g>
                                    </g>
                                </g>
                                <path d="M49.594161,20.113358 C49.594161,20.0829265 49.6253401,20.0512529 49.6253401,19.9891478 C43.0024754,15.0803606 36.3796107,10.1616366 29.756746,5.23297581 C23.1031179,10.1721945 16.4800454,15.0809817 9.85759637,20.0202003 C9.88815193,20.0506318 9.88815193,20.0823054 9.91995465,20.1121159 L49.594161,20.113358 Z" id="Path_33" fill="#F7F8FB"></path>
                                <path d="M5.69829932,50.9764879 L51.3495465,50.9764879 L51.3495465,53.9829958 L56.0314059,53.9829958 L56.0314059,62.0821221 L1.01643991,62.0821221 L1.01643991,53.9829958 L5.6989229,53.9829958 L5.69829932,50.9764879 Z M48.5153628,53.7712174 L8.49943311,53.7712174 L8.49943311,56.8081569 L3.82256236,56.8081569 L3.82256236,59.2923609 L53.2009637,59.2923609 L53.2009637,56.8081569 L48.5191043,56.8081569 L48.5153628,53.7712174 Z" id="Path_34" fill="#000078"></path>
                                <path d="M0,21.647354 C1.2627551,20.6965249 2.43197279,19.8376113 3.57312925,18.9768346 C11.7358277,12.9319382 19.8885488,6.87793291 28.0312925,0.814818924 C28.1522408,0.689802162 28.3190534,0.619172199 28.4933673,0.619172199 C28.6676813,0.619172199 28.8344939,0.689802162 28.9554422,0.814818924 C38.1042328,7.62526429 47.2733938,14.4255658 56.4629252,21.2157235 C56.6169501,21.3399337 56.7404195,21.4306072 56.9867347,21.6144383 C37.9811791,21.647354 19.0672902,21.647354 0,21.647354 Z M48.3307823,18.8861612 C48.3307823,18.8557297 48.3619615,18.8240561 48.3619615,18.761951 C41.7390967,13.8531638 35.116232,8.93443982 28.4933673,4.00577901 C21.8397392,8.94499769 15.2166667,13.8537849 8.59421769,18.7930035 C8.62477324,18.823435 8.62477324,18.8551086 8.65657596,18.8849191 L48.3307823,18.8861612 Z" id="Path_35" fill="#000078"></path>
                                <path d="M18.2971655,24.9917137 L18.2971655,47.6327493 L8.07040816,47.6327493 L8.07040816,24.9917137 L18.2971655,24.9917137 Z M15.4629819,27.8143905 L10.8734127,27.8143905 L10.8734127,44.841125 L15.4629819,44.841125 L15.4629819,27.8143905 Z" id="Path_36" fill="#37BEB7"></path>
                                <path d="M38.7513039,24.9917137 L48.9475057,24.9917137 L48.9475057,47.6327493 L38.7513039,47.6327493 L38.7513039,24.9917137 Z M41.5854875,27.7864432 L41.5854875,44.8436092 L46.1445011,44.8436092 L46.1445011,27.7864432 L41.5854875,27.7864432 Z" id="Path_37" fill="#37BEB7"></path>
                                <path d="M23.4261338,24.9917137 L33.6223356,24.9917137 L33.6223356,47.6327493 L23.4261338,47.6327493 L23.4261338,24.9917137 Z M26.2603175,27.7864432 L26.2603175,44.8436092 L30.8193311,44.8436092 L30.8193311,27.7864432 L26.2603175,27.7864432 Z" id="Path_37-Copy" fill="#37BEB7"></path>
                                <path d="M32.2810091,12.8110402 C32.281009,14.8864342 30.5917721,16.5689055 28.5079176,16.5690198 C26.4240631,16.5691341 24.73464,14.8868482 24.7344105,12.8114542 C24.7341809,10.7360602 26.4232317,9.05340355 28.5070862,9.05306056 C30.5911227,9.05306054 32.2806647,10.7354649 32.2810091,12.8110402 Z M29.4468254,12.8110402 C29.4531257,12.4297413 29.2265075,12.0827659 28.8739668,11.9339357 C28.5214261,11.7851055 28.1134722,11.864187 27.8427174,12.1338425 C27.5719626,12.4034981 27.4925587,12.8097956 27.6419956,13.160905 C27.7914326,13.5120144 28.1398224,13.7377125 28.5226757,13.7314378 C29.0282728,13.7193633 29.43555,13.3145591 29.4486961,12.8110402 L29.4468254,12.8110402 Z" id="Path_38" fill="#FBC316"></path>
                            </g>
                        </g>
                    </g>
                </g>
            </g>
        </g>
    </g>
</svg>