<?xml version="1.0" encoding="UTF-8"?>
<svg width="58px" height="50px" viewBox="0 0 58 50" version="1.1" xmlns="http://www.w3.org/2000/svg" xmlns:xlink="http://www.w3.org/1999/xlink">
    <!-- Generator: Sketch 52 (66869) - http://www.bohemiancoding.com/sketch -->
    <title>wallet</title>
    <desc>Created with Sketch.</desc>
    <defs>
        <rect id="path-1" x="0" y="0" width="58" height="58"></rect>
    </defs>
    <g id="Products" stroke="none" stroke-width="1" fill="none" fill-rule="evenodd">
        <g transform="translate(-193.000000, -209.000000)" id="wallet">
            <g transform="translate(193.000000, 205.000000)">
                <mask id="mask-2" fill="white">
                    <use xlink:href="#path-1"></use>
                </mask>
                <g id="Mask" fill-rule="nonzero"></g>
                <g id="Group-2" mask="url(#mask-2)">
                    <g transform="translate(0.000000, 4.000000)">
                        <path d="M52.75,8 C54.2083328,8 55.4479172,8.51041722 56.46875,9.53125 C57.4895828,10.5520828 58,11.7916672 58,13.25 L58,43 C58,44.96875 57.3255203,46.6276047 55.9765625,47.9765625 C54.6276047,49.3255203 52.96875,50 51,50 L12.5,50 C9.58333278,50 7.10416722,48.9791672 5.0625,46.9375 C3.02083278,44.8958328 2,42.4166672 2,39.5 L2,11.5 C2,8.58333278 3.02083278,6.10416722 5.0625,4.0625 C7.10416722,2.02083278 9.58333278,1 12.5,1 L45.75,1 C47.2083328,1 48.4479172,1.51041722 49.46875,2.53125 C50.4895828,3.55208278 51,4.79166722 51,6.25 L51,8 L52.75,8 Z M54.5,43 L54.5,13.25 C54.5,12.7395828 54.3359375,12.3203125 54.0078125,11.9921875 C53.6796875,11.6640625 53.2604172,11.5 52.75,11.5 L14.25,11.5 C13.7395828,11.5 13.3203125,11.3359375 12.9921875,11.0078125 C12.6640625,10.6796875 12.5,10.2604172 12.5,9.75 C12.5,9.23958278 12.6640625,8.8203125 12.9921875,8.4921875 C13.3203125,8.1640625 13.7395828,8 14.25,8 L47.5,8 L47.5,6.25 C47.5,5.73958278 47.3359375,5.3203125 47.0078125,4.9921875 C46.6796875,4.6640625 46.2604172,4.5 45.75,4.5 L12.5,4.5 C10.6041672,4.5 8.96354222,5.19270778 7.578125,6.578125 C6.19270778,7.96354222 5.5,9.60416722 5.5,11.5 L5.5,39.5 C5.5,41.3958328 6.19270778,43.0364578 7.578125,44.421875 C8.96354222,45.8072922 10.6041672,46.5 12.5,46.5 L51,46.5 C51.9479172,46.5 52.7682297,46.1536453 53.4609375,45.4609375 C54.1536453,44.7682297 54.5,43.9479172 54.5,43 Z" id="-copy" fill="#F4F4F4"></path>
                        <path d="M50.75,7 C52.2083328,7 53.4479172,7.51041722 54.46875,8.53125 C55.4895828,9.55208278 56,10.7916672 56,12.25 L56,42 C56,43.96875 55.3255203,45.6276047 53.9765625,46.9765625 C52.6276047,48.3255203 50.96875,49 49,49 L10.5,49 C7.58333278,49 5.10416722,47.9791672 3.0625,45.9375 C1.02083278,43.8958328 0,41.4166672 0,38.5 L0,10.5 C0,7.58333278 1.02083278,5.10416722 3.0625,3.0625 C5.10416722,1.02083278 7.58333278,0 10.5,0 L43.75,0 C45.2083328,0 46.4479172,0.510417223 47.46875,1.53125 C48.4895828,2.55208278 49,3.79166722 49,5.25 L49,7 L50.75,7 Z M52.5,42 L52.5,12.25 C52.5,11.7395828 52.3359375,11.3203125 52.0078125,10.9921875 C51.6796875,10.6640625 51.2604172,10.5 50.75,10.5 L12.25,10.5 C11.7395828,10.5 11.3203125,10.3359375 10.9921875,10.0078125 C10.6640625,9.6796875 10.5,9.26041722 10.5,8.75 C10.5,8.23958278 10.6640625,7.8203125 10.9921875,7.4921875 C11.3203125,7.1640625 11.7395828,7 12.25,7 L45.5,7 L45.5,5.25 C45.5,4.73958278 45.3359375,4.3203125 45.0078125,3.9921875 C44.6796875,3.6640625 44.2604172,3.5 43.75,3.5 L10.5,3.5 C8.60416722,3.5 6.96354222,4.19270778 5.578125,5.578125 C4.19270778,6.96354222 3.5,8.60416722 3.5,10.5 L3.5,38.5 C3.5,40.3958328 4.19270778,42.0364578 5.578125,43.421875 C6.96354222,44.8072922 8.60416722,45.5 10.5,45.5 L49,45.5 C49.9479172,45.5 50.7682297,45.1536453 51.4609375,44.4609375 C52.1536453,43.7682297 52.5,42.9479172 52.5,42 Z" id="" fill="#000078"></path>
                        <path d="M43,24 C44.083334,24 45.020834,24.395834 45.8125,25.1875 C46.604166,25.979166 47,26.916666 47,28 C47,29.083334 46.604166,30.020834 45.8125,30.8125 C45.020834,31.604166 44.083334,32 43,32 C41.916666,32 40.979166,31.604166 40.1875,30.8125 C39.395834,30.020834 39,29.083334 39,28 C39,26.916666 39.395834,25.979166 40.1875,25.1875 C40.979166,24.395834 41.916666,24 43,24 Z" id="Path" fill="#37BEB7"></path>
                        <path d="M43,26 C43.541667,26 44.010417,26.197917 44.40625,26.59375 C44.802083,26.989583 45,27.458333 45,28 C45,28.541667 44.802083,29.010417 44.40625,29.40625 C44.010417,29.802083 43.541667,30 43,30 C42.458333,30 41.989583,29.802083 41.59375,29.40625 C41.197917,29.010417 41,28.541667 41,28 C41,27.458333 41.197917,26.989583 41.59375,26.59375 C41.989583,26.197917 42.458333,26 43,26 Z" id="Path-Copy" fill="#FBC316"></path>
                    </g>
                </g>
            </g>
        </g>
    </g>
</svg>